<?xml version="1.0" encoding="UTF-8" standalone="no"?>
<svg
   xmlns:dc="http://purl.org/dc/elements/1.1/"
   xmlns:cc="http://creativecommons.org/ns#"
   xmlns:rdf="http://www.w3.org/1999/02/22-rdf-syntax-ns#"
   xmlns:svg="http://www.w3.org/2000/svg"
   xmlns="http://www.w3.org/2000/svg"
   viewBox="0 0 377.94666 377.94666"
   height="377.94666"
   width="377.94666"
   xml:space="preserve"
   id="svg2"
   version="1.1"><metadata
     id="metadata8"><rdf:RDF><cc:Work
         rdf:about=""><dc:format>image/svg+xml</dc:format><dc:type
           rdf:resource="http://purl.org/dc/dcmitype/StillImage" /></cc:Work></rdf:RDF></metadata><defs
     id="defs6"><clipPath
       id="clipPath26"
       clipPathUnits="userSpaceOnUse"><path
         id="path24"
         d="m 93.5445,-177.45111 c 0,51.66386 -41.88065,93.54451 -93.5445,93.54451 -51.66385,0 -93.5445,-41.88065 -93.5445,-93.54451 0,-51.66386 41.88065,-93.54449 93.5445,-93.54449 51.66385,0 93.5445,41.88063 93.5445,93.54449 z M 141.7341,9.96277 V -273.50545 H -141.7341 V 9.96277 h 283.4682" /></clipPath></defs><g
     transform="matrix(1.3333333,0,0,-1.3333333,0,377.94667)"
     id="g10"><g
       transform="translate(72,211.46)"
       id="g12"><g
         transform="translate(69.73,62.04)"
         id="g14"><g
           id="g16"><g
             id="g18"><g
               id="g20"><g
                 clip-path="url(#clipPath26)"
                 id="g22"><g
                   id="g28"><path
                     id="path30"
                     style="fill:#FFFFFF;fill-opacity:1;fill-rule:nonzero;stroke:none"
                     d="m 124.72601,-141.7341 c 0,68.88515 -55.84086,124.72601 -124.72601,124.72601 -68.88515,0 -124.72601,-55.84086 -124.72601,-124.72601 0,-68.88515 55.84086,-124.72601 124.72601,-124.72601 68.88515,0 124.72601,55.84086 124.72601,124.72601 z" /></g></g></g><g
               id="g32"><g
                 id="g34"><path
                   id="path36"
                   style="fill:#FFFFFF;fill-opacity:1;fill-rule:nonzero;stroke:none"
                   d="m 73.70172,-194.17572 c 0,40.70486 -32.99687,73.70174 -73.70172,73.70174 -40.70485,0 -73.70172,-32.99688 -73.70172,-73.70174 0,-40.70485 32.99687,-73.70172 73.70172,-73.70172 40.70485,0 73.70172,32.99687 73.70172,73.70172 z" /></g></g></g></g></g></g></g></svg>
